<?xml version="1.0" encoding="UTF-8"?> <!-- Generator: Adobe Illustrator 22.1.0, SVG Export Plug-In . SVG Version: 6.00 Build 0) --> <svg xmlns="http://www.w3.org/2000/svg" xmlns:xlink="http://www.w3.org/1999/xlink" id="Layer_1" x="0px" y="0px" viewBox="0 0 86 123.5" style="enable-background:new 0 0 86 123.5;" xml:space="preserve"> <style type="text/css"> .st0{fill:#ADBED7;} .st1{fill:#91A8CA;} .st2{fill:#9BB0D0;} .st3{fill:#7995C0;} .st4{fill:#698BBA;} .st5{fill:#517AB0;} .st6{fill:#BFCCE0;} .st7{fill:#6788B7;} </style> <g> <path class="st0" d="M51.8,100.5C51.8,100.5,51.8,100.5,51.8,100.5C51.8,100.5,51.8,100.5,51.8,100.5L51.8,100.5z"></path> <path class="st0" d="M52.9,100.5c-0.4,0-0.7,0-1.1,0C52.2,100.5,52.5,100.5,52.9,100.5z"></path> <path class="st0" d="M81.6,34.3C81.6,18.2,68.9,5.1,53,4.4c-0.1,0-0.2,0-0.2,0c-0.2,0-0.3,0-0.5,0c-0.2,0-0.4,0-0.6,0H8 c-2.3,0-4.3,1.9-4.3,4.3v7.2V17c0,5.9,4.8,10.7,10.7,10.7h37.2c1.8,0,3.4,0.7,4.6,1.9s1.9,2.8,1.9,4.6c0,3.3-2.5,6-5.7,6.4 c-0.2,0-0.5,0-0.7,0.1H8c-2.4,0-4.3,1.9-4.3,4.3v7.6v7.3c0,2.4,1.9,4.4,4.3,4.4h43.6c0.2,0,0.5,0,0.7,0.1c3.2,0.4,5.7,3.1,5.7,6.4 c0,3.6-2.9,6.5-6.5,6.5H14.4c-5.9,0-10.7,5-10.7,10.9V89v7.3c0,2.4,1.9,4.1,4.3,4.1h43.7c0.4,0,0.8,0,1.2,0c0,0-0.1,0-0.1,0 c16-0.6,28.7-13.6,28.7-29.7v-0.2c0-6.8-2.3-13.1-6.1-18.1C79.3,47.4,81.6,41.1,81.6,34.3z"></path> </g> <g> <path class="st1" d="M51.8,100.5c0.4,0,0.8,0,1.2,0c12.7-0.6,22.8-11,22.8-23.9c0-3.4-0.7-6.7-2-9.6c-1.3-2.9-3.2-5.6-5.5-7.8 c2.7-1.8,5.1-4.1,7.1-6.7c3.8,5,6.1,11.3,6.1,18.1v0.2C81.6,87.3,68.4,100.5,51.8,100.5"></path> <path class="st1" d="M6.8,100.8"></path> <path class="st2" d="M75.8,76.6c0,12.9-10.1,23.2-22.8,23.9c9.5-0.6,16.9-8.5,16.9-18.1c0-10-8.1-18.1-18.1-18.1c0.3,0,0.7,0,1,0 c0.3,0,0.6,0,0.9,0c0,0,0,0,0.1,0c0.4,0,0.8-0.1,1.1-0.1c0.1,0,0.1,0,0.2,0c0.4,0,0.8-0.1,1.2-0.2c0.4-0.1,0.8-0.1,1.2-0.2 c0.1,0,0.2,0,0.3-0.1c0.3-0.1,0.6-0.1,0.9-0.2c0.1,0,0.2,0,0.2-0.1c0.3-0.1,0.6-0.1,0.8-0.2c0.2,0,0.3-0.1,0.5-0.1 c0.2,0,0.3-0.1,0.5-0.2c0.2-0.1,0.5-0.2,0.7-0.2c0.7-0.2,1.4-0.5,2.1-0.8c0.3-0.1,0.7-0.3,1-0.5c0.2-0.1,0.4-0.2,0.6-0.3 c0.2-0.1,0.4-0.2,0.6-0.3c0.4-0.2,0.8-0.4,1.2-0.7c0,0,0,0,0,0c0.2-0.1,0.4-0.2,0.6-0.4c0.2-0.2,0.5-0.3,0.7-0.5 c2.3,2.2,4.2,4.8,5.5,7.8C75.1,69.9,75.8,73.2,75.8,76.6z"></path> <path class="st1" d="M69.9,22.5c0,10-8.1,18.1-18.1,18.1h-0.1c0.2,0,0.5,0,0.7-0.1c6.3-0.5,11.3-5.9,11.3-12.3 c0-6.8-5.5-12.4-12.4-12.4H3.8V8.6c0-2.3,1.9-4.3,4.3-4.3h43.6c0.2,0,0.4,0,0.6,0c0.2,0,0.3,0,0.5,0c4.8,0.3,9.1,2.4,12.2,5.6 C68,13.3,69.9,17.7,69.9,22.5z"></path> <path class="st3" d="M63.7,28.2c0,6.5-5,11.8-11.3,12.3c3.2-0.4,5.7-3.1,5.7-6.4c0-1.8-0.7-3.4-1.9-4.6c-1.2-1.2-2.8-1.9-4.6-1.9 H14.4C8.5,27.7,3.8,22.9,3.8,17v-1.2h47.6C58.2,15.9,63.7,21.4,63.7,28.2z"></path> <path class="st4" d="M69.9,82.4c0,9.6-7.5,17.5-16.9,18.1c-0.4,0-0.8,0-1.2,0H8c-2.4,0-4.3-1.8-4.3-4.1V89h47.6 c6.8,0,12.4-5.5,12.4-12.4c0-6.5-5-11.8-11.3-12.3c-0.2,0-0.5,0-0.7-0.1h0.1C61.8,64.2,69.9,72.4,69.9,82.4z"></path> <path class="st5" d="M63.7,76.6c0,6.8-5.5,12.4-12.4,12.4H3.8v-0.9c0-5.9,4.8-10.9,10.7-10.9h37.2c3.6,0,6.5-2.9,6.5-6.5 c0-3.3-2.5-6-5.7-6.4C58.7,64.8,63.7,70.2,63.7,76.6z"></path> <path class="st6" d="M75.8,28.4c0,6.8-2.8,13-7.4,17.3c-4.3,4.2-10.2,6.7-16.7,6.7h-48v-7.6c0-2.4,1.9-4.3,4.3-4.3h43.8 c10,0,18.1-8.1,18.1-18.1c0-4.8-1.9-9.2-5-12.5c-3.1-3.2-7.4-5.4-12.2-5.6c0.1,0,0.2,0,0.2,0c3.6,0.2,6.9,1.2,9.9,2.7 c0.7,0.3,1.3,0.7,1.9,1.1c0.6,0.4,1.2,0.8,1.8,1.3c0.9,0.7,1.7,1.5,2.5,2.3c2.6,2.7,4.5,6,5.6,9.7c0.2,0.7,0.4,1.5,0.6,2.2 c0.1,0.4,0.1,0.8,0.2,1.2c0.1,0.8,0.2,1.6,0.2,2.4C75.8,27.6,75.8,28,75.8,28.4z"></path> <path class="st0" d="M81.6,34.3c0,6.8-2.3,13.1-6.1,18.1c-2,2.6-4.4,4.9-7.1,6.7c-0.2,0.2-0.5,0.3-0.7,0.5 c-0.2,0.1-0.4,0.2-0.6,0.4c0,0,0,0,0,0c-0.4,0.2-0.8,0.5-1.2,0.7c-0.2,0.1-0.4,0.2-0.6,0.3c-0.2,0.1-0.4,0.2-0.6,0.3 c-0.3,0.2-0.7,0.3-1,0.5c-0.7,0.3-1.4,0.6-2.1,0.8c-0.2,0.1-0.5,0.2-0.7,0.2c-0.2,0.1-0.3,0.1-0.5,0.2c-0.2,0.1-0.3,0.1-0.5,0.1 c-0.3,0.1-0.6,0.2-0.8,0.2c-0.1,0-0.2,0-0.2,0.1c-0.3,0.1-0.6,0.2-0.9,0.2c-0.1,0-0.2,0-0.3,0.1c-0.4,0.1-0.8,0.1-1.2,0.2 c-0.4,0.1-0.8,0.1-1.2,0.2c-0.1,0-0.1,0-0.2,0c-0.4,0-0.8,0.1-1.1,0.1c0,0,0,0-0.1,0c-0.3,0-0.6,0-0.9,0c-0.3,0-0.7,0-1,0H8 c-2.4,0-4.3-2-4.3-4.4v-7.3h48c6.5,0,12.4-2.6,16.7-6.7c4.5-4.4,7.4-10.5,7.4-17.3c0-0.4,0-0.8,0-1.2c0-0.8-0.1-1.6-0.2-2.4 c-0.1-0.4-0.1-0.8-0.2-1.2c-0.2-0.8-0.3-1.5-0.6-2.2c-1.1-3.7-3-7-5.6-9.7c-0.8-0.8-1.6-1.6-2.5-2.3c-0.6-0.5-1.2-0.9-1.8-1.3 c-0.6-0.4-1.3-0.8-1.9-1.1c-3-1.6-6.4-2.5-9.9-2.7C68.9,5.1,81.6,18.2,81.6,34.3z"></path> </g> <g> <path class="st7" d="M5,109.1h2.7c1.2,0,2.1,0.2,2.7,0.6c0.6,0.4,0.8,1,0.8,1.9c0,0.6-0.1,1-0.4,1.4s-0.7,0.6-1.2,0.7v0.1 c0.6,0.1,1.1,0.4,1.4,0.8s0.4,0.9,0.4,1.6c0,0.9-0.3,1.6-0.9,2.1c-0.6,0.5-1.4,0.7-2.4,0.7H5V109.1z M6.4,113.1h1.4 c0.6,0,1.1-0.1,1.4-0.3c0.3-0.2,0.4-0.6,0.4-1.1c0-0.5-0.2-0.8-0.5-1c-0.3-0.2-0.8-0.3-1.5-0.3H6.4V113.1z M6.4,114.4v3.1H8 c0.6,0,1.1-0.1,1.4-0.4c0.3-0.3,0.5-0.7,0.5-1.2c0-0.5-0.2-0.9-0.5-1.1c-0.3-0.2-0.8-0.4-1.5-0.4H6.4z"></path> <path class="st7" d="M18,118.9l-0.2-1h-0.1c-0.2,0.3-0.5,0.6-0.9,0.8c-0.4,0.2-0.8,0.3-1.3,0.3c-0.8,0-1.4-0.2-1.9-0.7 c-0.4-0.4-0.6-1.1-0.6-2v-4.8h1.5v4.6c0,0.6,0.1,1,0.3,1.3c0.2,0.3,0.6,0.4,1,0.4c0.6,0,1.1-0.2,1.3-0.6c0.3-0.4,0.4-1.1,0.4-2 v-3.7h1.5v7.4H18z"></path> <path class="st7" d="M25.8,116.8c0,0.7-0.2,1.3-0.7,1.7c-0.5,0.4-1.2,0.6-2.1,0.6c-0.9,0-1.6-0.1-2.2-0.4v-1.4 c0.8,0.4,1.6,0.6,2.2,0.6c0.9,0,1.3-0.3,1.3-0.9c0-0.2,0-0.3-0.1-0.5s-0.3-0.3-0.5-0.4s-0.5-0.3-0.9-0.5c-0.8-0.3-1.3-0.7-1.6-1 c-0.3-0.3-0.4-0.8-0.4-1.3c0-0.6,0.2-1.1,0.7-1.5s1.1-0.5,1.9-0.5c0.8,0,1.6,0.2,2.3,0.5l-0.5,1.2c-0.7-0.3-1.4-0.5-1.9-0.5 c-0.8,0-1.2,0.2-1.2,0.7c0,0.2,0.1,0.4,0.3,0.6c0.2,0.2,0.6,0.4,1.3,0.7c0.6,0.2,1,0.5,1.2,0.7s0.4,0.4,0.6,0.7 S25.8,116.4,25.8,116.8z"></path> <path class="st7" d="M27.3,109.5c0-0.3,0.1-0.5,0.2-0.6c0.1-0.2,0.3-0.2,0.6-0.2c0.3,0,0.5,0.1,0.6,0.2c0.1,0.2,0.2,0.4,0.2,0.6 c0,0.3-0.1,0.5-0.2,0.6c-0.1,0.2-0.3,0.2-0.6,0.2c-0.3,0-0.5-0.1-0.6-0.2C27.4,110,27.3,109.8,27.3,109.5z M28.8,118.9h-1.5v-7.4 h1.5V118.9z"></path> <path class="st7" d="M37,118.9h-1.5v-4.6c0-0.6-0.1-1-0.3-1.3c-0.2-0.3-0.6-0.4-1-0.4c-0.6,0-1.1,0.2-1.4,0.6 c-0.3,0.4-0.4,1.1-0.4,2v3.7h-1.5v-7.4h1.1l0.2,1h0.1c0.2-0.4,0.5-0.6,0.9-0.8s0.8-0.3,1.3-0.3c1.6,0,2.5,0.9,2.5,2.7V118.9z"></path> <path class="st7" d="M42,119c-1.1,0-1.9-0.3-2.5-1s-0.9-1.6-0.9-2.8c0-1.2,0.3-2.2,0.8-2.9c0.6-0.7,1.3-1,2.3-1 c0.9,0,1.6,0.3,2.1,0.9c0.5,0.6,0.8,1.4,0.8,2.5v0.9h-4.6c0,0.7,0.2,1.3,0.5,1.7c0.3,0.4,0.8,0.6,1.4,0.6c0.4,0,0.8,0,1.1-0.1 c0.3-0.1,0.7-0.2,1.1-0.4v1.3c-0.4,0.2-0.7,0.3-1.1,0.4C42.9,119,42.4,119,42,119z M41.7,112.5c-0.5,0-0.8,0.2-1.1,0.5 c-0.3,0.3-0.4,0.8-0.5,1.4h3.1c0-0.6-0.1-1.1-0.4-1.4C42.5,112.7,42.2,112.5,41.7,112.5z"></path> <path class="st7" d="M50.9,116.8c0,0.7-0.2,1.3-0.7,1.7c-0.5,0.4-1.2,0.6-2.1,0.6c-0.9,0-1.6-0.1-2.2-0.4v-1.4 c0.8,0.4,1.6,0.6,2.2,0.6c0.9,0,1.3-0.3,1.3-0.9c0-0.2,0-0.3-0.1-0.5c-0.1-0.1-0.3-0.3-0.5-0.4c-0.2-0.1-0.5-0.3-0.9-0.5 c-0.8-0.3-1.3-0.7-1.6-1c-0.3-0.3-0.4-0.8-0.4-1.3c0-0.6,0.2-1.1,0.7-1.5s1.1-0.5,1.9-0.5c0.8,0,1.6,0.2,2.3,0.5l-0.5,1.2 c-0.7-0.3-1.4-0.5-1.9-0.5c-0.8,0-1.2,0.2-1.2,0.7c0,0.2,0.1,0.4,0.3,0.6c0.2,0.2,0.6,0.4,1.3,0.7c0.6,0.2,1,0.5,1.2,0.7 s0.4,0.4,0.6,0.7C50.8,116.1,50.9,116.4,50.9,116.8z"></path> <path class="st7" d="M57.1,116.8c0,0.7-0.2,1.3-0.7,1.7c-0.5,0.4-1.2,0.6-2.1,0.6c-0.9,0-1.6-0.1-2.2-0.4v-1.4 c0.8,0.4,1.6,0.6,2.2,0.6c0.9,0,1.3-0.3,1.3-0.9c0-0.2,0-0.3-0.1-0.5c-0.1-0.1-0.3-0.3-0.5-0.4c-0.2-0.1-0.5-0.3-0.9-0.5 c-0.8-0.3-1.3-0.7-1.6-1c-0.3-0.3-0.4-0.8-0.4-1.3c0-0.6,0.2-1.1,0.7-1.5c0.5-0.4,1.1-0.5,1.9-0.5c0.8,0,1.6,0.2,2.3,0.5l-0.5,1.2 c-0.7-0.3-1.4-0.5-1.9-0.5c-0.8,0-1.2,0.2-1.2,0.7c0,0.2,0.1,0.4,0.3,0.6c0.2,0.2,0.6,0.4,1.3,0.7c0.6,0.2,1,0.5,1.2,0.7 c0.3,0.2,0.4,0.4,0.6,0.7S57.1,116.4,57.1,116.8z"></path> <path class="st7" d="M64.7,118.9h-1.5v-4.6c0-0.6-0.1-1-0.3-1.3c-0.2-0.3-0.6-0.4-1-0.4c-0.6,0-1.1,0.2-1.3,0.6 c-0.3,0.4-0.4,1.1-0.4,2v3.7h-1.5v-10.4h1.5v2.6c0,0.4,0,0.9-0.1,1.4h0.1c0.2-0.4,0.5-0.6,0.8-0.8c0.4-0.2,0.8-0.3,1.2-0.3 c1.7,0,2.5,0.9,2.5,2.7V118.9z"></path> <path class="st7" d="M71.5,118.9l-0.2-1h-0.1c-0.2,0.3-0.5,0.6-0.9,0.8c-0.4,0.2-0.8,0.3-1.3,0.3c-0.8,0-1.4-0.2-1.9-0.7 c-0.4-0.4-0.6-1.1-0.6-2v-4.8h1.5v4.6c0,0.6,0.1,1,0.3,1.3c0.2,0.3,0.6,0.4,1,0.4c0.6,0,1.1-0.2,1.3-0.6c0.3-0.4,0.4-1.1,0.4-2 v-3.7h1.5v7.4H71.5z"></path> <path class="st7" d="M78.2,111.3c0.9,0,1.5,0.3,2,1c0.5,0.7,0.7,1.6,0.7,2.8c0,1.2-0.2,2.2-0.7,2.8s-1.2,1-2,1c-0.9,0-1.5-0.3-2-1 h-0.1l-0.3,0.9h-1.1v-10.4h1.5v2.5c0,0.2,0,0.5,0,0.8c0,0.4,0,0.6,0,0.7h0.1C76.7,111.7,77.3,111.3,78.2,111.3z M77.9,112.6 c-0.6,0-1,0.2-1.3,0.6c-0.3,0.4-0.4,1-0.4,1.9v0.1c0,0.9,0.1,1.6,0.4,2c0.3,0.4,0.7,0.6,1.3,0.6c0.5,0,0.9-0.2,1.2-0.7 c0.3-0.4,0.4-1.1,0.4-1.9C79.5,113.5,78.9,112.6,77.9,112.6z"></path> </g> </svg> 