<?xml version="1.0" encoding="UTF-8"?> <!-- Generator: Adobe Illustrator 22.1.0, SVG Export Plug-In . SVG Version: 6.00 Build 0) --> <svg xmlns="http://www.w3.org/2000/svg" xmlns:xlink="http://www.w3.org/1999/xlink" id="EUROPEAN_UNION" x="0px" y="0px" viewBox="0 0 531.9 359.3" style="enable-background:new 0 0 531.9 359.3;" xml:space="preserve"> <style type="text/css"> .st0{fill:#0054A4;} .st1{fill:#FFD200;} </style> <rect x="7.5" y="5.8" class="st0" width="519" height="349"></rect> <polygon class="st1" points="167.8,102.7 172.1,116.1 186.2,116.1 174.8,124.4 179.2,137.8 167.8,129.5 156.4,137.8 160.7,124.4 149.3,116.1 163.4,116.1 "></polygon> <polygon class="st1" points="208.5,61.3 212.8,74.7 226.9,74.7 215.5,82.9 219.9,96.3 208.5,88.1 197.1,96.3 201.4,82.9 190,74.7 204.1,74.7 "></polygon> <polygon class="st1" points="266.5,45.6 270.8,59 284.9,59 273.5,67.3 277.9,80.7 266.5,72.4 255.1,80.7 259.4,67.3 248,59 262.1,59 "></polygon> <polygon class="st1" points="323.8,61.4 328.2,74.7 342.2,74.7 330.8,83 335.2,96.4 323.8,88.1 312.4,96.4 316.8,83 305.4,74.7 319.5,74.7 "></polygon> <polygon class="st1" points="366,103.6 370.4,117 384.5,117 373.1,125.2 377.4,138.6 366,130.4 354.6,138.6 359,125.2 347.6,117 361.7,117 "></polygon> <polygon class="st1" points="381.7,161.6 386,174.9 400.1,174.9 388.7,183.2 393.1,196.6 381.7,188.3 370.3,196.6 374.6,183.2 363.2,174.9 377.3,174.9 "></polygon> <polygon class="st1" points="366,219.7 370.3,233.1 384.4,233.1 373,241.4 377.4,254.8 366,246.5 354.6,254.8 358.9,241.4 347.5,233.1 361.6,233.1 "></polygon> <polygon class="st1" points="323.8,261.7 328.1,275.1 342.2,275.1 330.8,283.3 335.2,296.7 323.8,288.5 312.4,296.7 316.7,283.3 305.3,275.1 319.4,275.1 "></polygon> <polygon class="st1" points="266.6,277 271,290.4 285,290.4 273.7,298.7 278,312.1 266.6,303.8 255.2,312.1 259.6,298.7 248.2,290.4 262.3,290.4 "></polygon> <polygon class="st1" points="208.6,261.4 213,274.8 227.1,274.8 215.7,283 220,296.4 208.6,288.2 197.2,296.4 201.6,283 190.2,274.8 204.3,274.8 "></polygon> <polygon class="st1" points="167.3,219.5 171.6,232.8 185.7,232.8 174.3,241.1 178.6,254.5 167.3,246.2 155.9,254.5 160.2,241.1 148.8,232.8 162.9,232.8 "></polygon> <polygon class="st1" points="151.4,160.5 155.8,174 170,174 158.5,182.4 162.9,195.9 151.4,187.5 139.9,195.9 144.3,182.4 132.8,174 147,174 "></polygon> </svg> 