<?xml version="1.0" encoding="UTF-8"?> <!-- Generator: Adobe Illustrator 22.1.0, SVG Export Plug-In . SVG Version: 6.00 Build 0) --> <svg xmlns:cc="http://creativecommons.org/ns#" xmlns:dc="http://purl.org/dc/elements/1.1/" xmlns:rdf="http://www.w3.org/1999/02/22-rdf-syntax-ns#" xmlns:svg="http://www.w3.org/2000/svg" xmlns="http://www.w3.org/2000/svg" xmlns:xlink="http://www.w3.org/1999/xlink" id="svg70" x="0px" y="0px" viewBox="0 0 215.5 213.2" style="enable-background:new 0 0 215.5 213.2;" xml:space="preserve"> <style type="text/css"> .st0{fill:none;stroke:#FFFFFF;stroke-width:1.0001;} .st1{fill:#062B58;} .st2{fill:#062B58;stroke:#FFFFFF;stroke-width:0.216;} .st3{fill:#07336D;stroke:#FFFFFF;stroke-width:0.216;} .st4{fill:#003D8E;} .st5{fill:#003D8E;stroke:#FFFFFF;stroke-width:0.216;} .st6{fill:#24549E;stroke:#FFFFFF;stroke-width:0.216;} .st7{fill:#3B6DB0;} .st8{fill:#3B6DB0;stroke:#FFFFFF;stroke-width:0.216;} .st9{fill:#4E89C3;stroke:#FFFFFF;stroke-width:0.216;} .st10{fill:#61A3D4;stroke:#FFFFFF;stroke-width:0.216;} .st11{fill:#050535;} .st12{fill:#050535;stroke:#FFFFFF;stroke-width:0.216;} .st13{fill:#ED190F;} .st14{fill:#FFFFFF;} </style> <path id="path2" class="st0" d="M154.2,7.9L185.3,39c4.7,4.7,1.4,12.9-5.3,12.9l-95.8,0.2l44.2-44.2C135.5,0.8,147,0.8,154.2,7.9 L154.2,7.9z"></path> <path id="path4" class="st0" d="M73.2,2.6h60.9h6.3c-2,0.3-5.4,1-8.9,3.2c-1,0.7-1.9,1.4-2.7,2l-1.6,1.6c-0.1,0.1-0.2,0.3-0.3,0.4 l0,0l-71,71.3c-0.8,0.8-2.3,0.2-2.3-0.9v-58C53.6,11.4,62.4,2.6,73.2,2.6L73.2,2.6z"></path> <path id="path6" class="st0" d="M73.2,2.6h60.9h6.3c-2,0.3-5.4,1-8.9,3.2c-1,0.7-1.9,1.4-2.7,2l-1.6,1.6c-0.1,0.1-0.2,0.3-0.3,0.4 l0,0l-71,71.3c-0.8,0.8-2.3,0.2-2.3-0.9v-58C53.6,11.4,62.4,2.6,73.2,2.6L73.2,2.6z"></path> <path id="path8" class="st0" d="M11.2,55.8l43-43l4.4-4.4c-1.2,1.6-3.1,4.5-4,8.5c-0.3,1.2-0.4,2.3-0.4,3.3v0.1v2.2 c0,0.2,0,0.3,0,0.5l0,0l0.3,100.5c0,1.2-1.4,1.8-2.3,0.9l-41-41C3.6,75.8,3.6,63.4,11.2,55.8L11.2,55.8z"></path> <path id="path10" class="st0" d="M11.2,55.8l43-43l4.4-4.4c-1.2,1.6-3.1,4.5-4,8.5c-0.3,1.2-0.4,2.3-0.4,3.3v0.1v2.2 c0,0.2,0,0.3,0,0.5l0,0l0.3,100.5c0,1.2-1.4,1.8-2.3,0.9l-41-41C3.6,75.8,3.6,63.4,11.2,55.8L11.2,55.8z"></path> <path id="path12" class="st0" d="M5.1,137.8V76.9v-6.3c0.3,2,1,5.4,3.2,8.9c0.7,1,1.4,1.9,2,2.7l1.6,1.6c0.1,0.1,0.3,0.2,0.4,0.3 l0,0l71.3,71c0.8,0.8,0.2,2.3-0.9,2.3h-58C13.8,157.4,5.1,148.6,5.1,137.8L5.1,137.8z"></path> <path id="path14" class="st0" d="M5.1,137.8V76.9v-6.3c0.3,2,1,5.4,3.2,8.9c0.7,1,1.4,1.9,2,2.7l1.6,1.6c0.1,0.1,0.3,0.2,0.4,0.3 l0,0l71.3,71c0.8,0.8,0.2,2.3-0.9,2.3h-58C13.8,157.4,5.1,148.6,5.1,137.8L5.1,137.8z"></path> <path id="path16" class="st0" d="M58.4,200.1l-43-43l-4.4-4.4c1.6,1.2,4.5,3.1,8.5,4c1.2,0.3,2.3,0.4,3.3,0.4h0.1h2.2 c0.2,0,0.3,0,0.5,0l0,0l100.6-0.2c1.2,0,1.8,1.4,0.9,2.3l-41,41C78.4,207.7,66.1,207.7,58.4,200.1L58.4,200.1z"></path> <path id="path18" class="st0" d="M140.7,206.2H79.8h-6.3c2-0.3,5.4-1,8.9-3.2c1-0.7,1.9-1.4,2.7-2l1.6-1.6c0.1-0.1,0.2-0.3,0.3-0.4 l0,0l71-71.3c0.8-0.8,2.3-0.2,2.3,0.9v58C160.2,197.4,151.5,206.2,140.7,206.2L140.7,206.2z"></path> <path id="path20" class="st0" d="M204,151.8l-44,44l-4.4,4.4c1.2-1.6,3.1-4.5,4-8.5c0.3-1.2,0.4-2.3,0.4-3.3v-2.2c0-0.2,0-0.3,0-0.5 l0,0l-0.2-85.6c0-6.7,8.1-10.1,12.9-5.3l31.3,31.3C211.1,133.1,211.1,144.7,204,151.8L204,151.8z"></path> <path id="path22" class="st0" d="M204,151.8l-44,44l-4.4,4.4c1.2-1.6,3.1-4.5,4-8.5c0.3-1.2,0.4-2.3,0.4-3.3v-2.2c0-0.2,0-0.3,0-0.5 l0,0l-0.2-85.6c0-6.7,8.1-10.1,12.9-5.3l31.3,31.3C211.1,133.1,211.1,144.7,204,151.8L204,151.8z"></path> <path id="path24" class="st1" d="M154.2,7.9L185.3,39c4.7,4.7,1.4,12.9-5.3,12.9l-95.8,0.2l44.2-44.2C135.5,0.8,147,0.8,154.2,7.9 L154.2,7.9z"></path> <path id="path26" class="st2" d="M154.2,7.9L185.3,39c4.7,4.7,1.4,12.9-5.3,12.9l-95.8,0.2l44.2-44.2C135.5,0.8,147,0.8,154.2,7.9 L154.2,7.9z"></path> <path id="path28" class="st3" d="M73.2,2.6h60.9h6.3c-2,0.3-5.4,1-8.9,3.2c-1,0.7-1.9,1.4-2.7,2l-1.6,1.6c-0.1,0.1-0.2,0.3-0.3,0.4 l0,0l-71,71.3c-0.8,0.8-2.3,0.2-2.3-0.9v-58C53.6,11.4,62.4,2.6,73.2,2.6L73.2,2.6z"></path> <path id="path30" class="st4" d="M11.2,55.8l43-43l4.4-4.4c-1.2,1.6-3.1,4.5-4,8.5c-0.3,1.2-0.4,2.3-0.4,3.3v0.1v2.2 c0,0.2,0,0.3,0,0.5l0,0l0.3,100.5c0,1.2-1.4,1.8-2.3,0.9l-41-41C3.6,75.8,3.6,63.4,11.2,55.8L11.2,55.8z"></path> <path id="path32" class="st5" d="M11.2,55.8l43-43l4.4-4.4c-1.2,1.6-3.1,4.5-4,8.5c-0.3,1.2-0.4,2.3-0.4,3.3v0.1v2.2 c0,0.2,0,0.3,0,0.5l0,0l0.3,100.5c0,1.2-1.4,1.8-2.3,0.9l-41-41C3.6,75.8,3.6,63.4,11.2,55.8L11.2,55.8z"></path> <path id="path34" class="st6" d="M5.1,137.8V76.9v-6.3c0.3,2,1,5.4,3.2,8.9c0.7,1,1.4,1.9,2,2.7l1.6,1.6c0.1,0.1,0.3,0.2,0.4,0.3 l0,0l71.3,71c0.8,0.8,0.2,2.3-0.9,2.3h-58C13.8,157.4,5.1,148.6,5.1,137.8L5.1,137.8z"></path> <path id="path36" class="st7" d="M58.4,200.1l-43-43l-4.4-4.4c1.6,1.2,4.5,3.1,8.5,4c1.2,0.3,2.3,0.4,3.3,0.4h0.1h2.2 c0.2,0,0.3,0,0.5,0l0,0l100.6-0.2c1.2,0,1.8,1.4,0.9,2.3l-41,41C78.4,207.7,66.1,207.7,58.4,200.1L58.4,200.1z"></path> <path id="path38" class="st8" d="M58.4,200.1l-43-43l-4.4-4.4c1.6,1.2,4.5,3.1,8.5,4c1.2,0.3,2.3,0.4,3.3,0.4h0.1h2.2 c0.2,0,0.3,0,0.5,0l0,0l100.6-0.2c1.2,0,1.8,1.4,0.9,2.3l-41,41C78.4,207.7,66.1,207.7,58.4,200.1L58.4,200.1z"></path> <path id="path40" class="st9" d="M140.7,206.2H79.8h-6.3c2-0.3,5.4-1,8.9-3.2c1-0.7,1.9-1.4,2.7-2l1.6-1.6c0.1-0.1,0.2-0.3,0.3-0.4 l0,0l71-71.3c0.8-0.8,2.3-0.2,2.3,0.9v58C160.2,197.4,151.5,206.2,140.7,206.2L140.7,206.2z"></path> <path id="path42" class="st10" d="M204,151.8l-44,44l-4.4,4.4c1.2-1.6,3.1-4.5,4-8.5c0.3-1.2,0.4-2.3,0.4-3.3v-2.2 c0-0.2,0-0.3,0-0.5l0,0l-0.2-85.6c0-6.7,8.1-10.1,12.9-5.3l31.3,31.3C211.1,133.1,211.1,144.7,204,151.8L204,151.8z"></path> <path id="path44" class="st11" d="M67.9,115.5V95.3c0-0.7,0.6-1.3,1.3-1.3h1.1c0.4,0,0.9,0.2,1.1,0.6l9.2,13.7 c0.7,1.1,2.4,0.6,2.4-0.7V95.3c0-0.7,0.6-1.3,1.3-1.3h0.3c0.7,0,1.3,0.6,1.3,1.3v20.2c0,0.7-0.6,1.3-1.3,1.3h-1.1 c-0.4,0-0.9-0.2-1.1-0.6l-9.2-13.7c-0.7-1.1-2.4-0.6-2.4,0.7v12.3c0,0.7-0.6,1.3-1.3,1.3h-0.3C68.5,116.8,67.9,116.3,67.9,115.5 L67.9,115.5z"></path> <path id="path46" class="st12" d="M67.9,115.5V95.3c0-0.7,0.6-1.3,1.3-1.3h1.1c0.4,0,0.9,0.2,1.1,0.6l9.2,13.7 c0.7,1.1,2.4,0.6,2.4-0.7V95.3c0-0.7,0.6-1.3,1.3-1.3h0.3c0.7,0,1.3,0.6,1.3,1.3v20.2c0,0.7-0.6,1.3-1.3,1.3h-1.1 c-0.4,0-0.9-0.2-1.1-0.6l-9.2-13.7c-0.7-1.1-2.4-0.6-2.4,0.7v12.3c0,0.7-0.6,1.3-1.3,1.3h-0.3C68.5,116.8,67.9,116.3,67.9,115.5 L67.9,115.5z"></path> <path id="path48" class="st11" d="M91.1,115.5V95.3c0-0.7,0.6-1.3,1.3-1.3h13.9c0.7,0,1.3,0.6,1.3,1.3v0.1c0,0.7-0.6,1.3-1.3,1.3 H95.4c-0.7,0-1.3,0.6-1.3,1.3v4.4c0,0.7,0.6,1.3,1.3,1.3h10c0.7,0,1.3,0.6,1.3,1.3l0,0c0,0.7-0.6,1.3-1.3,1.3h-10 c-0.7,0-1.3,0.6-1.3,1.3v5.1c0,0.7,0.6,1.3,1.3,1.3h11.4c0.7,0,1.3,0.6,1.3,1.3v0.1c0,0.7-0.6,1.3-1.3,1.3H92.4 C91.6,116.8,91.1,116.3,91.1,115.5L91.1,115.5z"></path> <path id="path50" class="st12" d="M91.1,115.5V95.3c0-0.7,0.6-1.3,1.3-1.3h13.9c0.7,0,1.3,0.6,1.3,1.3v0.1c0,0.7-0.6,1.3-1.3,1.3 H95.4c-0.7,0-1.3,0.6-1.3,1.3v4.4c0,0.7,0.6,1.3,1.3,1.3h10c0.7,0,1.3,0.6,1.3,1.3l0,0c0,0.7-0.6,1.3-1.3,1.3h-10 c-0.7,0-1.3,0.6-1.3,1.3v5.1c0,0.7,0.6,1.3,1.3,1.3h11.4c0.7,0,1.3,0.6,1.3,1.3v0.1c0,0.7-0.6,1.3-1.3,1.3H92.4 C91.6,116.8,91.1,116.3,91.1,115.5L91.1,115.5z"></path> <path id="path52" class="st11" d="M111.5,114.7l6.7-9c0.3-0.5,0.3-1.1,0-1.6l-5.7-8.1c-0.6-0.9,0-2.1,1.1-2.1h0.4 c0.4,0,0.8,0.2,1.1,0.6l3.7,5.3c0.3,0.4,0.6,0.8,0.8,1.1c0.5,0.8,1.6,0.8,2.2,0c0.2-0.3,0.5-0.6,0.7-0.9l4.2-5.5 c0.2-0.3,0.6-0.5,1.1-0.5c1.1,0,1.7,1.2,1.1,2.1L123,104c-0.3,0.5-0.3,1.1,0,1.6l6.6,9.2c0.6,0.9,0,2.1-1.1,2.1H128 c-0.4,0-0.8-0.2-1.1-0.6l-5.4-7.6c-0.3-0.5-0.7-1-1-1.5c-0.5,0.8-0.9,1.4-1.1,1.7l-5.3,7.4c-0.2,0.3-0.6,0.5-1.1,0.5h-0.3 C111.5,116.8,110.9,115.6,111.5,114.7L111.5,114.7z"></path> <path id="path54" class="st12" d="M111.5,114.7l6.7-9c0.3-0.5,0.3-1.1,0-1.6l-5.7-8.1c-0.6-0.9,0-2.1,1.1-2.1h0.4 c0.4,0,0.8,0.2,1.1,0.6l3.7,5.3c0.3,0.4,0.6,0.8,0.8,1.1c0.5,0.8,1.6,0.8,2.2,0c0.2-0.3,0.5-0.6,0.7-0.9l4.2-5.5 c0.2-0.3,0.6-0.5,1.1-0.5c1.1,0,1.7,1.2,1.1,2.1L123,104c-0.3,0.5-0.3,1.1,0,1.6l6.6,9.2c0.6,0.9,0,2.1-1.1,2.1H128 c-0.4,0-0.8-0.2-1.1-0.6l-5.4-7.6c-0.3-0.5-0.7-1-1-1.5c-0.5,0.8-0.9,1.4-1.1,1.7l-5.3,7.4c-0.2,0.3-0.6,0.5-1.1,0.5h-0.3 C111.5,116.8,110.9,115.6,111.5,114.7L111.5,114.7z"></path> <path id="path56" class="st13" d="M112.6,117.5c-0.8,0-1.4-0.4-1.8-1.1c-0.3-0.7-0.3-1.5,0.2-2.1l6.7-9c0.2-0.2,0.2-0.5,0-0.8 l-5.7-8.1c-0.4-0.6-0.5-1.4-0.1-2.1c0.3-0.7,1-1.1,1.8-1.1h0.4c0.6,0,1.2,0.3,1.6,0.8l3.7,5.3c0.9,1.2,1.5,2.2,1.9,2.9l0.9,1.4 c0.5,0.8,0.5,1.9-0.2,2.7c-0.6,0.7-1.1,1.4-1.6,2.1c-0.1,0.2-0.3,0.4-0.4,0.6l-5.4,7.4c-0.4,0.5-1,0.8-1.6,0.8h-0.4V117.5z"></path> <path id="path58" class="st13" d="M112.6,117.5c-0.8,0-1.4-0.4-1.8-1.1c-0.3-0.7-0.3-1.5,0.2-2.1l6.7-9c0.2-0.2,0.2-0.5,0-0.8 l-5.7-8.1c-0.4-0.6-0.5-1.4-0.1-2.1c0.3-0.7,1-1.1,1.8-1.1h0.4c0.6,0,1.2,0.3,1.6,0.8l3.7,5.3c0.9,1.2,1.5,2.2,1.9,2.9l0.9,1.4 c0.5,0.8,0.5,1.9-0.2,2.7c-0.6,0.7-1.1,1.4-1.6,2.1c-0.1,0.2-0.3,0.4-0.4,0.6l-5.4,7.4c-0.4,0.5-1,0.8-1.6,0.8h-0.4V117.5z"></path> <path id="path60" class="st14" d="M113.9,92.7h-0.4c-1,0-1.9,0.6-2.4,1.4c-0.5,0.9-0.4,1.9,0.2,2.8l5.7,8.1l-6.7,9 c-0.6,0.8-0.7,1.9-0.2,2.8c0.5,0.9,1.4,1.5,2.4,1.5h0.3c0.8,0,1.7-0.4,2.2-1.1l5.3-7.4l0,0l0,0c0.1-0.2,0.3-0.4,0.4-0.6 c0.5-0.7,1-1.4,1.6-2.1c0.8-1,0.9-2.4,0.2-3.5l-0.9-1.4c-0.4-0.7-1-1.6-1.9-2.9L116,94C115.6,93.1,114.8,92.7,113.9,92.7L113.9,92.7 z M113.9,94c0.4,0,0.8,0.2,1.1,0.6l3.7,5.3c0.9,1.2,1.5,2.1,1.8,2.8l0.9,1.5c0.4,0.6,0.3,1.4-0.1,1.9c-0.5,0.6-1.1,1.4-1.7,2.2 c-0.2,0.2-0.3,0.4-0.4,0.7l-5.3,7.4c-0.2,0.3-0.6,0.5-1.1,0.5h-0.3c-1.1,0-1.7-1.2-1.1-2.1l6.7-9c0.3-0.5,0.3-1.1,0-1.6l-5.7-8.1 c-0.6-0.9,0-2.1,1.1-2.1L113.9,94z"></path> <path id="path62" class="st14" d="M113.9,92.7h-0.4c-1,0-1.9,0.6-2.4,1.4c-0.5,0.9-0.4,1.9,0.2,2.8l5.7,8.1l-6.7,9 c-0.6,0.8-0.7,1.9-0.2,2.8c0.5,0.9,1.4,1.5,2.4,1.5h0.3c0.8,0,1.7-0.4,2.2-1.1l5.3-7.4l0,0l0,0c0.1-0.2,0.3-0.4,0.4-0.6 c0.5-0.7,1-1.4,1.6-2.1c0.8-1,0.9-2.4,0.2-3.5l-0.9-1.4c-0.4-0.7-1-1.6-1.9-2.9L116,94C115.6,93.1,114.8,92.7,113.9,92.7L113.9,92.7 z M113.9,94c0.4,0,0.8,0.2,1.1,0.6l3.7,5.3c0.9,1.2,1.5,2.1,1.8,2.8l0.9,1.5c0.4,0.6,0.3,1.4-0.1,1.9c-0.5,0.6-1.1,1.4-1.7,2.2 c-0.2,0.2-0.3,0.4-0.4,0.7l-5.3,7.4c-0.2,0.3-0.6,0.5-1.1,0.5h-0.3c-1.1,0-1.7-1.2-1.1-2.1l6.7-9c0.3-0.5,0.3-1.1,0-1.6l-5.7-8.1 c-0.6-0.9,0-2.1,1.1-2.1L113.9,94z"></path> <path id="path64" class="st11" d="M139.4,115.5V98c0-0.7-0.6-1.3-1.3-1.3h-4.9c-0.7,0-1.3-0.6-1.3-1.3v-0.1c0-0.7,0.6-1.3,1.3-1.3 h15.5c0.7,0,1.3,0.6,1.3,1.3v0.1c0,0.7-0.6,1.3-1.3,1.3h-4.9c-0.7,0-1.3,0.6-1.3,1.3v17.5c0,0.7-0.6,1.3-1.3,1.3h-0.4 C140,116.8,139.4,116.3,139.4,115.5L139.4,115.5z"></path> <path id="path66" class="st12" d="M139.4,115.5V98c0-0.7-0.6-1.3-1.3-1.3h-4.9c-0.7,0-1.3-0.6-1.3-1.3v-0.1c0-0.7,0.6-1.3,1.3-1.3 h15.5c0.7,0,1.3,0.6,1.3,1.3v0.1c0,0.7-0.6,1.3-1.3,1.3h-4.9c-0.7,0-1.3,0.6-1.3,1.3v17.5c0,0.7-0.6,1.3-1.3,1.3h-0.4 C140,116.8,139.4,116.3,139.4,115.5L139.4,115.5z"></path> </svg> 