<?xml version="1.0" encoding="UTF-8"?> <!-- Generator: Adobe Illustrator 22.1.0, SVG Export Plug-In . SVG Version: 6.00 Build 0) --> <svg xmlns="http://www.w3.org/2000/svg" xmlns:xlink="http://www.w3.org/1999/xlink" id="Layer_1" x="0px" y="0px" viewBox="0 0 267.4 82.6" style="enable-background:new 0 0 267.4 82.6;" xml:space="preserve"> <style type="text/css"> .st0{fill:#FFD600;} .st1{fill:#005B97;} </style> <g> <polygon class="st0" points="49.8,29.5 49.8,2.8 36.5,2.8 36.5,29.5 2.8,29.5 2.8,42.8 2.8,42.9 36.5,42.9 36.5,69.8 49.8,69.8 49.8,42.9 109.7,42.9 109.7,29.5 "></polygon> <polygon class="st1" points="2.8,42.9 2.8,42.8 2.8,69.8 36.5,69.8 36.5,42.9 "></polygon> <line class="st1" x1="36.5" y1="2.8" x2="36.5" y2="2.8"></line> <rect x="2.8" y="2.8" class="st1" width="33.7" height="26.7"></rect> <rect x="49.8" y="42.8" class="st1" width="59.9" height="26.9"></rect> <rect x="49.8" y="2.8" class="st1" width="59.9" height="26.7"></rect> </g> <g> <path class="st1" d="M127.2,13.6c-2.2-0.9-3.8-2.2-3.8-4.9c0-3.6,2.8-5.8,6.3-5.8c3.6,0,5.9,2.3,6,6l-2.8,0.7 c-0.3-2.6-1.5-3.7-3.3-3.7c-1.6,0-3.1,0.9-3.1,2.6s1.5,2.3,2.7,2.8l2.9,1.1c2.5,1,4.2,2.3,4.2,5.2c0,3.7-2.9,5.8-6.6,5.8 c-4,0-6.9-2.4-6.9-6.5l2.8-0.6c0.3,2.6,1.6,4.2,4.1,4.2c1.7,0,3.5-0.7,3.5-2.7c0-1.8-1.6-2.4-3.2-3L127.2,13.6z"></path> <path class="st1" d="M147.6,23.1l-2.3-7.1l-2.2,7.1h-2.9l-3.6-14.3h2.9l2.6,9.7l2.3-7.7h2l2.3,7.7l2.6-9.7h2.9l-3.6,14.3H147.6z"></path> <path class="st1" d="M157.3,16.9c0.3,3,2,3.5,3.3,3.5c1.3,0,2.5-0.6,3.3-1.8l2.6,0.7c-0.8,2.4-3,3.9-5.9,3.9c-3.3,0-6.5-2-6.5-7.3 c0-5.4,3.3-7.4,6.4-7.4c3.1,0,6.4,2,6.4,7.4v1H157.3z M163.8,14.5c-0.4-2.6-1.9-3.1-3.1-3.1c-1.4,0-2.8,0.7-3.3,3.1H163.8z"></path> <path class="st1" d="M178.3,23.1l-0.1-1.3c-1.3,1.1-2.4,1.5-3.6,1.5c-2.9,0-6.2-2-6.2-7.4c0-5.4,3.3-7.3,6.1-7.3 c1.3,0,2.3,0.4,3.6,1.4V3h3v20.1H178.3z M178.1,15c-0.4-2.5-1.8-3.5-3.4-3.5c-1.4,0-3.2,0.8-3.2,4.5c0,3.7,1.8,4.5,3.3,4.5 c1.4,0,3-0.7,3.4-3V15z"></path> <path class="st1" d="M186.1,16.9c0.3,3,2,3.5,3.3,3.5c1.3,0,2.5-0.6,3.3-1.8l2.6,0.7c-0.8,2.4-3,3.9-5.9,3.9c-3.3,0-6.5-2-6.5-7.3 c0-5.4,3.3-7.4,6.4-7.4c3.1,0,6.4,2,6.4,7.4v1H186.1z M192.6,14.5c-0.4-2.6-1.9-3.1-3.1-3.1c-1.4,0-2.8,0.7-3.3,3.1H192.6z"></path> <path class="st1" d="M205.8,23.1v-8.3c0-2.8-1.4-3.4-2.4-3.4c-1.1,0-2.5,0.7-2.8,2.7v9h-3V8.8h2.8l0.1,1.2c1.2-1,2.2-1.4,3.3-1.4 c2.3,0,5.1,1.6,5.1,6v8.5H205.8z"></path> </g> <g> <path class="st1" d="M129.3,53.7c-3.5-1.4-6.3-3.5-6.3-8.1c0-5.9,4.6-9.4,10.3-9.4c5.8,0,9.7,3.7,9.8,9.8l-4.5,1.1 c-0.5-4.2-2.4-6.1-5.3-6.1c-2.6,0-5.1,1.4-5.1,4.2c0,2.8,2.5,3.8,4.5,4.6l4.7,1.8c4.1,1.6,6.9,3.8,6.9,8.5c0,6.1-4.8,9.5-10.8,9.5 c-6.5,0-11.2-4-11.3-10.6l4.5-0.9c0.6,4.2,2.6,6.8,6.7,6.8c2.8,0,5.8-1.2,5.8-4.4c0-3-2.5-3.9-5.3-4.9L129.3,53.7z"></path> <path class="st1" d="M171.2,59.2c0.6,4.8,3.2,5.8,5.4,5.8c2.2,0,4.1-0.9,5.4-2.9l4.2,1.1c-1.2,3.9-4.8,6.4-9.6,6.4 c-5.4,0-10.6-3.2-10.6-11.9c0-8.8,5.3-12,10.4-12c5.1,0,10.4,3.2,10.4,12v1.6H171.2z M181.8,55.3c-0.7-4.2-3.1-5-5.1-5 c-2.3,0-4.6,1.2-5.4,5H181.8z"></path> <path class="st1" d="M204.4,69.3v-4.5h4.7V50.4h-4.7v-4.5h9.5v18.9h4.7v4.5H204.4z M211.4,42.9c-1.8,0-3.2-1.5-3.2-3.4 c0-1.9,1.4-3.5,3.2-3.5c1.8,0,3.3,1.5,3.3,3.5C214.8,41.4,213.3,42.9,211.4,42.9z"></path> <path class="st1" d="M235.1,67.2c-2.2,1.9-4,2.3-5.7,2.3c-4.7,0-10.1-3.2-10.1-12c0-8.8,5.4-11.9,10-11.9c2.1,0,3.8,0.6,5.9,2.4 l0.1-2.2h4.6v23.4c0,5.6-4,9.7-10.2,9.7c-4.8,0-8.3-2.4-9.5-6.4l4.2-1.1c1.3,2,3.3,2.9,5.4,2.9c3.3,0,5.1-2,5.1-5.1V67.2z M235.1,56c-0.6-4.1-3-5.8-5.6-5.8c-2.3,0-5.2,1.3-5.2,7.4c0,6,2.9,7.3,5.3,7.3c2.2,0,4.9-1.1,5.5-4.8V56z"></path> <path class="st1" d="M248.1,59.2c0.6,4.8,3.2,5.8,5.4,5.8c2.2,0,4.1-0.9,5.4-2.9l4.2,1.1c-1.2,3.9-4.8,6.4-9.6,6.4 c-5.4,0-10.6-3.2-10.6-11.9c0-8.8,5.3-12,10.4-12c5.1,0,10.4,3.2,10.4,12v1.6H248.1z M258.6,55.3c-0.7-4.2-3.1-5-5.1-5 c-2.3,0-4.6,1.2-5.4,5H258.6z"></path> <path class="st1" d="M202.4,46c-0.9-0.2-1.8-0.3-2.3-0.3c-1.8,0-3.8,1.2-5.6,2.9l-0.2-2.7h-4.6v23.4h4.9V55.8c0.6-3.7,2.9-5,5-5 c0.7,0,1.5,0.1,2.7,0.4V46z"></path> <path class="st1" d="M153,69.3l-8.3-23.4h5.1l5.6,16.6l5.6-16.6h5.1l-8.3,23.4H153z"></path> </g> </svg> 